<svg xmlns="http://www.w3.org/2000/svg" xmlns:xlink="http://www.w3.org/1999/xlink" width="340.841" height="112.058" viewBox="0 0 340.841 112.058">
  <defs>
    <linearGradient id="linear-gradient" x1="0.214" y1="0.1" x2="0.594" y2="0.616" gradientUnits="objectBoundingBox">
      <stop offset="0" stop-color="#006445"/>
      <stop offset="1" stop-color="#00ac76"/>
    </linearGradient>
    <linearGradient id="linear-gradient-2" x1="0.366" y1="0.33" x2="0.748" y2="0.846" gradientUnits="objectBoundingBox">
      <stop offset="0" stop-color="#00bc81"/>
      <stop offset="1" stop-color="#006445"/>
    </linearGradient>
  </defs>
  <g id="Group_80" data-name="Group 80" transform="translate(-1185.239 -785)">
    <g id="Group_79" data-name="Group 79" transform="translate(817.447 589.559)">
      <path id="Path_122" data-name="Path 122" d="M422.085,195.441A56.029,56.029,0,0,0,370.893,228.7H404.4l-36.611,36.611a55.9,55.9,0,0,0,10.639,21.265l78.761-78.761A55.785,55.785,0,0,0,422.085,195.441Z" transform="translate(0 0)" fill="url(#linear-gradient)"/>
      <path id="Path_123" data-name="Path 123" d="M430.57,265.479l37.5-37.5a55.883,55.883,0,0,0-10.429-20.447L378.88,286.293a56.011,56.011,0,0,0,86.266-20.814Z" transform="translate(8.099 8.832)" fill="url(#linear-gradient-2)"/>
    </g>
    <path id="Path_125" data-name="Path 125" d="M20.16-10.56,50.8-47.6V-56H3.68v10.56H33.76L3.04-8.4V0H52V-10.56ZM77.04-43.68c-6.88,0-13.84,1.84-18.56,5.2l4.48,8.72a20.7,20.7,0,0,1,12.4-4c6.72,0,9.92,3.12,9.92,8.48H75.36C62.24-25.28,56.88-20,56.88-12.4c0,7.44,6,13.04,16.08,13.04,6.32,0,10.8-2.08,13.12-6V0H97.76V-24.56C97.76-37.6,90.16-43.68,77.04-43.68ZM76.08-7.76c-4.4,0-7.04-2.08-7.04-5.2,0-2.88,1.84-5.04,7.68-5.04h8.56v4.4C83.84-9.68,80.24-7.76,76.08-7.76Zm62.88-35.28L126.8-13.84l-12.08-29.2H101.84L120.48.32l-.16.4c-1.68,3.84-3.6,5.36-7.04,5.36a11.064,11.064,0,0,1-7.04-2.72l-4.56,8.88c2.8,2.48,7.6,3.92,12,3.92,7.76,0,13.68-3.12,17.84-13.52l19.44-45.68Zm43.28-.64c-5.84,0-10.88,2-14.24,5.68v-5.04H156.08V0h12.48V-21.28c0-7.92,4.32-11.6,10.32-11.6,5.52,0,8.72,3.2,8.72,10.16V0h12.48V-24.64C200.08-37.76,192.4-43.68,182.24-43.68Z" transform="translate(1326 872)" fill="#202020"/>
  </g>
</svg>
