<?xml version="1.0" encoding="UTF-8"?>
<svg xmlns="http://www.w3.org/2000/svg" viewBox="0 0 449.77 455.71">
  <defs>
    <style>
      .cls-1, .cls-2, .cls-3, .cls-4, .cls-5, .cls-6, .cls-7 {
        stroke-miterlimit: 10;
      }

      .cls-1, .cls-2, .cls-4 {
        fill: none;
      }

      .cls-1, .cls-3, .cls-8, .cls-5, .cls-9, .cls-6, .cls-10, .cls-11, .cls-7 {
        stroke: #263238;
      }

      .cls-12, .cls-6, .cls-11 {
        fill: #263238;
      }

      .cls-2 {
        stroke: #000;
      }

      .cls-2, .cls-13 {
        opacity: .3;
      }

      .cls-3 {
        fill: #e3e3e3;
      }

      .cls-4 {
        stroke: #fff;
      }

      .cls-14, .cls-8 {
        fill: #707070;
      }

      .cls-8, .cls-9, .cls-10, .cls-11 {
        stroke-linecap: round;
        stroke-linejoin: round;
      }

      .cls-5, .cls-15, .cls-9 {
        fill: #92e3a9;
      }

      .cls-16 {
        opacity: .2;
      }

      .cls-10, .cls-7, .cls-17 {
        fill: #fff;
      }

      .cls-18 {
        fill: #b2b2b2;
      }

      .cls-17 {
        opacity: .7;
      }
    </style>
  </defs>
  <g id="Background_Simple">
    <g>
      <path class="cls-15" d="M442.69,234.66c-10.69,39.89-36.08,84.39-76.25,100.69-60.69,24.64-63.33,75.71-175.67,81.75-17.52.94-33.88.03-49.07-2.46-8.17-1.34-15.99-3.15-23.47-5.39C50.33,389.04,10.65,334.03,1.98,273.33c-11.42-79.84,40.88-123.42,75.1-149.28C111.3,98.18,146.82,7.26,257.22.45c16.83-1.03,33.79-.34,50.43,2.5,37.98,6.48,77.75,25.04,102.72,55.34,1.87,2.28,3.68,4.62,5.42,7.01,34.02,46.86,41.48,114.96,26.9,169.35Z"/>
      <path class="cls-17" d="M442.69,234.66c-10.69,39.89-36.08,84.39-76.25,100.69-60.69,24.64-63.33,75.71-175.67,81.75-17.52.94-33.88.03-49.07-2.46-8.17-1.34-15.99-3.15-23.47-5.39C50.33,389.04,10.65,334.03,1.98,273.33c-11.42-79.84,40.88-123.42,75.1-149.28C111.3,98.18,146.82,7.26,257.22.45c16.83-1.03,33.79-.34,50.43,2.5,37.98,6.48,77.75,25.04,102.72,55.34,1.87,2.28,3.68,4.62,5.42,7.01,34.02,46.86,41.48,114.96,26.9,169.35Z"/>
    </g>
  </g>
  <g id="Graphics">
    <path class="cls-2" d="M59.86,82.73v-5.67c0-11.19-7.44-15.15-15.05-15.15s-14.88,5.7-14.88,15.15v5.67h-2.12v31.38h34v-31.38h-1.95ZM45.82,99.97v5.68h-3.22v-5.68c-1.57-.64-2.68-2.17-2.68-3.97,0-2.37,1.92-4.29,4.29-4.29s4.29,1.92,4.29,4.29c0,1.8-1.11,3.34-2.68,3.97ZM55.15,82.73h-20.67v-5.67c0-5.7,4.64-10.34,10.34-10.34s10.34,3.9,10.34,10.34v5.67Z"/>
    <g>
      <rect class="cls-2" x="69.97" y="23.63" width="123.3" height="26.95" rx="13.48" ry="13.48"/>
      <g class="cls-13">
        <path d="M95.61,35.85l2.81,3.1-1.35,1.01-2.09-3.69-2.07,3.69-1.35-1.01,2.78-3.1-4.11-.85.5-1.62,3.87,1.7-.48-4.19h1.7l-.45,4.19,3.87-1.67.5,1.62-4.13.82Z"/>
        <path d="M106.08,35.85l2.81,3.1-1.35,1.01-2.09-3.69-2.07,3.69-1.35-1.01,2.78-3.1-4.11-.85.5-1.62,3.87,1.7-.48-4.19h1.7l-.45,4.19,3.87-1.67.5,1.62-4.13.82Z"/>
        <path d="M116.55,35.85l2.81,3.1-1.35,1.01-2.09-3.69-2.07,3.69-1.35-1.01,2.78-3.1-4.11-.85.5-1.62,3.87,1.7-.48-4.19h1.7l-.45,4.19,3.87-1.67.5,1.62-4.13.82Z"/>
        <path d="M127.02,35.85l2.81,3.1-1.35,1.01-2.09-3.69-2.07,3.69-1.35-1.01,2.78-3.1-4.11-.85.5-1.62,3.87,1.7-.48-4.19h1.7l-.45,4.19,3.87-1.67.5,1.62-4.13.82Z"/>
        <path d="M137.48,35.85l2.81,3.1-1.35,1.01-2.09-3.69-2.07,3.69-1.35-1.01,2.78-3.1-4.11-.85.5-1.62,3.87,1.7-.48-4.19h1.7l-.45,4.19,3.87-1.67.5,1.62-4.13.82Z"/>
        <path d="M147.95,35.85l2.81,3.1-1.35,1.01-2.09-3.69-2.07,3.69-1.35-1.01,2.78-3.1-4.11-.85.5-1.62,3.87,1.7-.48-4.19h1.7l-.45,4.19,3.87-1.67.5,1.62-4.13.82Z"/>
        <path d="M158.42,35.85l2.81,3.1-1.35,1.01-2.09-3.69-2.07,3.69-1.35-1.01,2.78-3.1-4.11-.85.5-1.62,3.87,1.7-.48-4.19h1.7l-.45,4.19,3.87-1.67.5,1.62-4.13.82Z"/>
        <path d="M168.89,35.85l2.81,3.1-1.35,1.01-2.09-3.69-2.07,3.69-1.35-1.01,2.78-3.1-4.11-.85.5-1.62,3.87,1.7-.48-4.19h1.7l-.45,4.19,3.87-1.67.5,1.62-4.13.82Z"/>
      </g>
    </g>
    <g>
      <path class="cls-2" d="M55.21,207.44c-.89-1.54-2.13-2.41-3.44-2.41h-2.27v-2.03c1.62-1.91,2.67-4.8,2.67-7.77,0-5.1-3.07-9.24-6.86-9.24s-6.86,4.13-6.86,9.24c0,2.86.96,5.65,2.48,7.55v2.25h-3.03c-1.34,0-2.61.87-3.52,2.41l-4.11,6.92h28.94l-4.01-6.92Z"/>
      <circle class="cls-2" cx="44.93" cy="202.18" r="21.52" transform="translate(-159.05 166.32) rotate(-67.5)"/>
    </g>
  </g>
  <g id="Arrows">
    <g class="cls-16">
      <path d="M205.83,295.75c-37.25-20.81-62.5-60.63-62.5-106.24,0-67.05,54.55-121.61,121.61-121.61,8.37,0,16.54.87,24.45,2.49l-3.1,10.4,34.56-8.22-24.4-25.81-2.96,9.93c-9.21-1.98-18.75-3.03-28.54-3.03-74.91,0-135.86,60.94-135.86,135.86,0,52.48,29.91,98.09,73.57,120.71l-8.59-14.24,11.78-.23Z"/>
      <path d="M315.07,63.24l10.67,11.29-13.11,3.12c43.41,18.58,73.91,61.72,73.91,111.86,0,67.05-54.55,121.61-121.61,121.61-12.24,0-24.06-1.83-35.21-5.21l4.22-7.65-35.51.69,18.35,30.41,5.91-10.72c13.3,4.36,27.49,6.73,42.23,6.73,74.91,0,135.86-60.94,135.86-135.86,0-57.21-35.55-106.28-85.72-126.27Z"/>
    </g>
  </g>
  <g id="Device_2">
    <g>
      <g>
        <g>
          <path class="cls-9" d="M425.53,41.23l-22.9-4.37-.04.08c-1.14,2.31-3.01,3.6-4.73,3.27l-.99-.19c-1.73-.33-2.99-2.21-3.2-4.78v-.09s-22.91-4.37-22.91-4.37c-6.38-1.22-12.53,2.97-13.75,9.34l-29.7,150.71c-.7,3.66,1.7,7.19,5.36,7.89l64.61,12.33c3.66.7,7.19-1.7,7.89-5.36l29.7-150.71c1.22-6.38-2.97-12.53-9.34-13.75Z"/>
          <path class="cls-10" d="M434.23,58.34l.64-3.36c1.22-6.38-2.97-12.53-9.34-13.75l-22.9-4.37-.04.08c-1.14,2.31-3.01,3.6-4.73,3.27l-.99-.19c-1.73-.33-2.99-2.21-3.2-4.78v-.09s-22.91-4.37-22.91-4.37c-6.38-1.22-12.53,2.97-13.75,9.34l-.64,3.36,77.87,14.86Z"/>
          <g>
            <g>
              <path class="cls-8" d="M429.22,106.6l2.79-14.63-1.32-.25,8.33-38.69c1.22-6.38-2.97-12.53-9.34-13.75l-62.03-11.84c-6.38-1.22-12.53,2.97-13.75,9.34l-30.53,155.06c-1.22,6.38,2.97,12.53,9.34,13.75l62.03,11.84c6.38,1.22,12.53-2.97,13.75-9.34l17.04-89.27,1.32.25,1.65-8.65-1.32-.25.73-3.82,1.32.25ZM406.42,199.16c-1.22,6.38-7.37,10.56-13.75,9.34l-54.77-10.45c-6.38-1.22-10.56-7.37-9.34-13.75l28.46-144.18c1.22-6.38,7.37-10.56,13.75-9.34l22.9,4.37v.09c.22,2.57,1.48,4.45,3.21,4.78l.99.19c1.73.33,3.59-.96,4.73-3.27l.04-.08,22.9,4.37c6.38,1.22,10.56,7.37,9.34,13.75l-28.46,144.18Z"/>
              <path class="cls-11" d="M427.34,40.49l-57.98-11.06c-6.76-1.29-13.28,3.14-14.57,9.9l-29.66,150.51c-1.29,6.76,3.14,13.28,9.9,14.57l57.98,11.06c6.76,1.29,13.28-3.14,14.57-9.9l29.66-150.51c1.29-6.76-3.14-13.28-9.9-14.57ZM406.42,199.16c-1.22,6.38-7.37,10.56-13.75,9.34l-54.77-10.45c-6.38-1.22-10.56-7.37-9.34-13.75l28.46-144.18c1.22-6.38,7.37-10.56,13.75-9.34l22.9,4.37v.09c.22,2.57,1.48,4.45,3.21,4.78l.99.19c1.73.33,3.59-.96,4.73-3.27l.04-.08,22.9,4.37c6.38,1.22,10.56,7.37,9.34,13.75l-28.46,144.18Z"/>
            </g>
            <path class="cls-14" d="M398.89,36.72c.11-.6-.28-1.18-.88-1.29-.6-.11-1.18.28-1.29.88-.11.6.28,1.18.88,1.29.6.11,1.18-.28,1.29-.88Z"/>
          </g>
          <g>
            <g>
              <path class="cls-12" d="M365.24,34.6c-.21,1.1-1.52,1.26-1.68,2.09v.06s1.18.23,1.18.23l-.07.37-1.6-.3.06-.31c.22-1.17,1.5-1.17,1.7-2.19.07-.37-.02-.6-.32-.65-.3-.06-.47.13-.53.45l-.06.32-.38-.07.06-.3c.11-.56.43-.88.99-.77.57.11.75.52.65,1.08Z"/>
              <path class="cls-12" d="M367.23,34.98l-.02.09c-.07.37-.27.61-.58.66.28.17.37.47.3.84l-.05.28c-.11.56-.44.87-1,.76-.56-.11-.75-.52-.64-1.08l.05-.25.38.07-.05.28c-.06.33.03.55.33.61.3.06.46-.11.53-.48l.05-.28c.07-.36-.05-.56-.35-.63l-.22-.04.07-.36.24.05c.27.04.47-.1.53-.42l.03-.17c.07-.37-.02-.59-.32-.65-.29-.06-.46.12-.53.45l-.04.19-.38-.07.03-.17c.11-.56.43-.87.99-.76.56.11.75.52.65,1.07Z"/>
              <path class="cls-12" d="M367.96,35.4l-.1.5-.39-.07.1-.5.39.07ZM367.58,37.38l-.1.5-.39-.07.1-.5.39.07Z"/>
              <path class="cls-12" d="M368.72,35.89c.15-.18.35-.24.6-.2.47.09.61.47.51.99l-.14.71c-.11.56-.44.87-1,.76-.56-.11-.75-.52-.64-1.08l.05-.24.38.07-.05.27c-.06.33.03.55.33.61.29.06.46-.12.53-.44l.13-.71c.06-.33-.03-.55-.33-.61-.22-.04-.4.05-.49.31l-.02.08-.38-.07.48-2,1.43.27-.07.36-1.07-.2-.27,1.11Z"/>
              <path class="cls-12" d="M372.07,35.9v.07s-.39-.07-.39-.07l.02-.09c.06-.33-.04-.55-.33-.6-.31-.06-.48.11-.55.5l-.16.82c.15-.23.37-.33.66-.28.47.09.61.47.51.99l-.11.55c-.11.56-.45.87-1.01.76-.56-.11-.77-.52-.66-1.08l.35-1.86c.11-.58.44-.89,1.02-.78.56.11.75.51.65,1.07ZM370.56,37.02l-.1.55c-.06.33.03.55.33.61.29.06.47-.12.53-.44l.1-.55c.06-.33-.04-.55-.33-.61-.3-.06-.47.12-.53.44Z"/>
            </g>
            <g>
              <rect class="cls-12" x="410.49" y="43.51" width="1.05" height="2.61" transform="translate(15.69 -76.27) rotate(10.81)"/>
              <rect class="cls-12" x="411.9" y="43.26" width="1.05" height="3.14" transform="translate(15.71 -76.5) rotate(10.8)"/>
              <rect class="cls-12" x="413.31" y="43.15" width="1.05" height="3.51" transform="translate(15.75 -76.76) rotate(10.8)"/>
              <rect class="cls-12" x="414.74" y="42.77" width="1.05" height="4.16" transform="translate(15.76 -77.03) rotate(10.8)"/>
              <g>
                <path class="cls-12" d="M428.11,49.34l-6.16-1.18.72-3.77,6.16,1.18-.72,3.77ZM422.36,47.89l5.48,1.05.59-3.08-5.48-1.05-.59,3.08Z"/>
                <rect class="cls-12" x="423.14" y="45.57" width="3.31" height="2.38" transform="translate(16.29 -78.79) rotate(10.8)"/>
                <rect class="cls-12" x="428.25" y="47.04" width=".79" height=".9" transform="translate(16.49 -79.48) rotate(10.8)"/>
              </g>
              <path class="cls-12" d="M419.85,46.92s-.08-.03-.11-.05c-1.11-.98-2.07-.45-2.11-.43-.11.06-.25.03-.32-.08-.06-.11-.03-.25.08-.32.05-.03,1.29-.74,2.66.48.1.09.11.23.02.33-.06.06-.14.09-.22.07Z"/>
              <path class="cls-12" d="M420.46,46.23s-.08-.03-.11-.05c-1.61-1.42-3.03-.61-3.04-.61-.11.07-.25.03-.32-.08-.07-.11-.03-.26.08-.32.02-.01,1.73-.99,3.59.66.1.09.11.23.02.33-.06.06-.14.09-.22.07Z"/>
              <path class="cls-12" d="M421.05,45.42s-.08-.03-.11-.05c-2.04-1.8-3.81-.81-3.88-.77-.11.06-.26.03-.32-.08-.07-.11-.03-.25.08-.32.02-.01,2.13-1.22,4.43.82.1.09.11.23.02.33-.06.06-.14.09-.22.07Z"/>
              <path class="cls-12" d="M419.08,47.17c-.06.32-.37.53-.69.47-.32-.06-.53-.37-.47-.69.06-.32.37-.53.69-.47.32.06.53.37.47.69Z"/>
            </g>
          </g>
        </g>
        <rect class="cls-7" x="348.54" y="94.27" width="65.92" height="57.05" rx="5.34" ry="5.34" transform="translate(29.78 -69.34) rotate(10.8)"/>
        <g>
          <path class="cls-12" d="M369.74,82.79l-.7-5.34.91.17.49,4.08,1.97-3.62.83.16-2.63,4.71-.54,2.81-.86-.16.54-2.81Z"/>
          <path class="cls-12" d="M373.27,80.21c.23-1.2.97-1.86,2.17-1.63,1.21.23,1.65,1.12,1.43,2.31l-.77,4.05c-.23,1.19-.97,1.86-2.18,1.63-1.2-.23-1.64-1.13-1.41-2.31l.77-4.05ZM373.35,84.47c-.14.72.09,1.19.71,1.31.64.12,1.01-.24,1.14-.95l.79-4.14c.13-.7-.07-1.19-.71-1.31-.63-.12-1.01.25-1.15.95l-.79,4.14Z"/>
          <path class="cls-12" d="M377.73,85.31c-.13.71.06,1.18.7,1.31.63.12.99-.25,1.12-.96l1.14-5.99.82.16-1.13,5.94c-.23,1.19-.93,1.88-2.14,1.65-1.2-.23-1.59-1.13-1.37-2.31l1.13-5.94.86.16-1.14,5.99Z"/>
          <path class="cls-12" d="M384.13,80.32c1.23.23,1.63.96,1.4,2.12l-.12.64c-.16.86-.57,1.34-1.28,1.43.68.35.83.98.67,1.82l-.23,1.22c-.07.35-.12.67-.02.97l-.88-.17c-.06-.24-.06-.45.04-.98l.23-1.23c.17-.88-.19-1.24-.92-1.38l-.62-.12-.64,3.35-.87-.17,1.5-7.83,1.75.33ZM383.2,83.98c.69.13,1.15-.01,1.31-.86l.14-.75c.13-.7-.05-1.12-.7-1.25l-.85-.16-.55,2.9.65.12Z"/>
          <path class="cls-12" d="M391.63,83.72l-.13.71-.83-.16.14-.75c.13-.7-.06-1.18-.7-1.31-.63-.12-1,.25-1.13.96l-.79,4.14c-.13.71.08,1.19.7,1.31.64.12,1-.25,1.13-.96l.19-1.02.83.16-.19.97c-.23,1.19-.94,1.86-2.14,1.63-1.2-.23-1.61-1.12-1.38-2.31l.77-4.05c.23-1.19.94-1.86,2.13-1.63,1.21.23,1.62,1.12,1.39,2.31Z"/>
          <path class="cls-12" d="M392.36,83.85c.23-1.2.97-1.86,2.17-1.63,1.21.23,1.66,1.12,1.43,2.31l-.77,4.05c-.23,1.19-.97,1.86-2.18,1.63-1.2-.23-1.64-1.13-1.41-2.31l.77-4.05ZM392.44,88.12c-.14.72.09,1.19.71,1.31.64.12,1.01-.24,1.15-.95l.79-4.14c.13-.7-.08-1.19-.71-1.31-.63-.12-1.01.25-1.14.95l-.79,4.14Z"/>
          <path class="cls-12" d="M398.98,83.16c1.22.23,1.64,1.08,1.41,2.29l-.75,3.95c-.23,1.2-.93,1.83-2.15,1.6l-1.84-.35,1.5-7.83,1.84.35ZM397.62,90.2c.63.12,1-.21,1.14-.93l.77-4.03c.14-.72-.09-1.17-.73-1.29l-.94-.18-1.19,6.25.95.18Z"/>
          <path class="cls-12" d="M403.7,87.66l-.15.78-1.91-.37-.53,2.79,2.35.45-.15.79-3.22-.62,1.5-7.83,3.22.62-.15.79-2.35-.45-.51,2.68,1.91.37Z"/>
        </g>
        <g>
          <path class="cls-12" d="M363.72,114.53c.62-.71,1.44-1,2.43-.81,1.9.36,2.48,1.92,2.08,4.03l-.55,2.89c-.43,2.26-1.79,3.53-4.05,3.1-2.26-.43-3.03-2.11-2.6-4.37l.19-.99,1.54.29-.21,1.1c-.25,1.33.14,2.24,1.32,2.46,1.18.23,1.88-.47,2.14-1.8l.55-2.87c.25-1.33-.14-2.24-1.32-2.46-.91-.17-1.62.22-1.97,1.27l-.06.34-1.54-.29,1.97-8.14,5.83,1.11-.28,1.48-4.35-.83-1.1,4.5Z"/>
          <path class="cls-12" d="M377.35,114.57l-.05.27-1.54-.29.07-.38c.25-1.33-.15-2.22-1.35-2.45-1.25-.24-1.95.46-2.25,2.04l-.63,3.32c.6-.94,1.51-1.35,2.69-1.13,1.9.36,2.48,1.9,2.08,4.03l-.43,2.24c-.43,2.26-1.83,3.52-4.09,3.09-2.28-.44-3.12-2.13-2.69-4.39l1.44-7.54c.45-2.34,1.78-3.6,4.13-3.15,2.28.44,3.06,2.07,2.63,4.33ZM371.2,119.14l-.42,2.22c-.25,1.33.14,2.24,1.35,2.47,1.18.23,1.91-.47,2.16-1.8l.42-2.22c.25-1.33-.16-2.24-1.35-2.47-1.2-.23-1.91.47-2.16,1.8Z"/>
          <path class="cls-12" d="M385.56,116.14l-.05.27-1.54-.29.07-.38c.25-1.33-.15-2.22-1.35-2.45-1.25-.24-1.95.46-2.25,2.04l-.63,3.32c.6-.94,1.51-1.35,2.69-1.13,1.9.36,2.48,1.9,2.08,4.03l-.43,2.24c-.43,2.26-1.83,3.52-4.09,3.09-2.28-.44-3.12-2.13-2.69-4.39l1.44-7.54c.45-2.34,1.78-3.6,4.13-3.15,2.28.44,3.06,2.07,2.63,4.33ZM379.42,120.7l-.42,2.22c-.25,1.33.14,2.24,1.35,2.47,1.18.23,1.91-.47,2.16-1.8l.42-2.22c.25-1.33-.16-2.24-1.35-2.47-1.2-.23-1.91.47-2.16,1.8Z"/>
          <path class="cls-12" d="M393.77,117.73l-1.44,7.54c-.45,2.34-1.79,3.62-4.15,3.17-2.26-.43-3.06-2.09-2.63-4.35l.05-.27,1.54.29-.07.38c-.25,1.33.17,2.22,1.35,2.45,1.27.24,1.97-.46,2.27-2.02l.63-3.32c-.59.94-1.5,1.33-2.68,1.11-1.9-.36-2.49-1.88-2.08-4.01l.43-2.26c.43-2.26,1.81-3.51,4.09-3.07,2.28.44,3.12,2.11,2.69,4.37ZM388.64,116.66l-.42,2.22c-.25,1.33.16,2.24,1.35,2.47,1.2.23,1.91-.47,2.16-1.8l.42-2.22c.26-1.35-.14-2.24-1.35-2.47-1.18-.23-1.9.45-2.16,1.8Z"/>
          <path class="cls-12" d="M402.15,119.26l-.09.46c-.29,1.5-1.02,2.5-2.27,2.72,1.13.72,1.38,1.97,1.09,3.45l-.21,1.1c-.44,2.28-1.89,3.47-4.19,3.03-2.3-.44-3.21-2.08-2.78-4.36l.21-1.1c.29-1.5.96-2.53,2.31-2.8-1.12-.69-1.42-1.87-1.13-3.37l.09-.46c.44-2.28,1.9-3.42,4.18-2.99,2.28.44,3.22,2.04,2.79,4.32ZM396.8,118.29l-.14.72c-.27,1.44.3,2.2,1.46,2.42,1.16.22,1.98-.28,2.25-1.71l.14-.72c.29-1.52-.27-2.35-1.44-2.57-1.16-.22-1.99.34-2.28,1.86ZM395.58,124.68l-.24,1.25c-.29,1.52.25,2.37,1.43,2.59,1.18.23,1.97-.37,2.29-1.88l.24-1.25c.27-1.44-.23-2.25-1.45-2.49-1.22-.23-1.99.34-2.27,1.78Z"/>
        </g>
        <line class="cls-1" x1="348.87" y1="158.51" x2="399.93" y2="168.25"/>
        <line class="cls-1" x1="346.97" y1="168.47" x2="398.03" y2="178.21"/>
      </g>
      <g>
        <line class="cls-1" x1="431.67" y1="120.98" x2="444.02" y2="119.08"/>
        <line class="cls-1" x1="429.77" y1="135.23" x2="436.42" y2="137.13"/>
        <line class="cls-1" x1="425.97" y1="147.58" x2="438.32" y2="156.13"/>
      </g>
    </g>
  </g>
  <g id="Device_1">
    <g>
      <path class="cls-12" d="M313.28,144.7c1.34,0,2.42-1.08,2.42-2.42v-19.99c0-1.34-1.08-2.42-2.42-2.42h-.11v-7.82c0-5.33-4.32-9.65-9.65-9.65H92.52c-5.33,0-9.65,4.32-9.65,9.65v145.77c0,5.33,4.32,9.65,9.65,9.65h211c5.33,0,9.65-4.32,9.65-9.65v-52.3h.11c1.34,0,2.42-1.08,2.42-2.42v-19.99c0-1.34-1.08-2.42-2.42-2.42h-.11v-2.53h.11c1.34,0,2.42-1.08,2.42-2.42v-19.99c0-1.34-1.08-2.42-2.42-2.42h-.11v-8.63h.11Z"/>
      <rect class="cls-5" x="91.48" y="108.83" width="213.09" height="152.2"/>
      <g>
        <rect class="cls-3" x="138.8" y="128.4" width="119.17" height="95.71"/>
        <g>
          <path class="cls-18" d="M183.63,197.59v.6h-1.46v2.13h1.8v.61h-2.46v-5.99h2.46v.61h-1.8v2.04h1.46Z"/>
          <path class="cls-18" d="M185.17,200.92h-.6v-5.99h.85l1.39,4.33v-4.33h.59v5.99h-.69l-1.53-4.84v4.84Z"/>
          <path class="cls-18" d="M188.94,200.92v-5.38h-1.1v-.61h2.87v.61h-1.1v5.38h-.66Z"/>
          <path class="cls-18" d="M193.29,197.59v.6h-1.46v2.13h1.8v.61h-2.46v-5.99h2.46v.61h-1.8v2.04h1.46Z"/>
          <path class="cls-18" d="M195.57,194.94c.94,0,1.33.48,1.33,1.37v.49c0,.66-.23,1.07-.74,1.23.55.16.75.61.75,1.25v.93c0,.27,0,.51.12.72h-.68c-.08-.17-.11-.33-.11-.73v-.94c0-.68-.32-.89-.87-.89h-.47v2.56h-.67v-5.99h1.33ZM195.4,197.76c.53,0,.85-.17.85-.82v-.57c0-.54-.2-.82-.69-.82h-.65v2.22h.5Z"/>
          <path class="cls-18" d="M201.57,196.38v.54h-.63v-.57c0-.54-.21-.86-.7-.86s-.7.32-.7.86v3.16c0,.54.22.86.7.86s.7-.33.7-.86v-.78h.63v.74c0,.91-.43,1.51-1.35,1.51s-1.34-.6-1.34-1.51v-3.1c0-.91.43-1.51,1.34-1.51s1.35.6,1.35,1.51Z"/>
          <path class="cls-18" d="M202.13,196.38c0-.92.45-1.51,1.37-1.51s1.38.59,1.38,1.51v3.1c0,.91-.45,1.51-1.38,1.51s-1.37-.6-1.37-1.51v-3.1ZM202.78,199.51c0,.55.23.86.71.86s.71-.32.71-.86v-3.16c0-.54-.22-.86-.71-.86s-.71.32-.71.86v3.16Z"/>
          <path class="cls-18" d="M206.91,194.94c.93,0,1.36.56,1.36,1.49v3.02c0,.92-.43,1.48-1.36,1.48h-1.4v-5.99h1.4ZM206.9,200.32c.48,0,.71-.3.71-.85v-3.08c0-.55-.23-.85-.72-.85h-.72v4.77h.73Z"/>
          <path class="cls-18" d="M211.02,197.59v.6h-1.46v2.13h1.8v.61h-2.46v-5.99h2.46v.61h-1.8v2.04h1.46Z"/>
        </g>
        <rect class="cls-7" x="148" y="160.01" width="100.56" height="11.35"/>
        <rect class="cls-7" x="148" y="178.01" width="100.56" height="11.35"/>
        <g>
          <rect class="cls-7" x="202.99" y="203.61" width="9.49" height="11.35"/>
          <rect class="cls-7" x="190.91" y="203.61" width="9.49" height="11.35"/>
          <rect class="cls-7" x="178.82" y="203.61" width="9.49" height="11.35"/>
          <rect class="cls-7" x="167.17" y="203.61" width="9.06" height="11.35"/>
          <rect class="cls-7" x="215.08" y="203.61" width="9.84" height="11.35"/>
        </g>
        <path class="cls-12" d="M203.17,141.39v-2.18c0-3.54-2.88-6.41-6.41-6.41s-6.41,2.88-6.41,6.41v2.18h-.12v12.06h13.07v-12.06h-.12ZM197.15,148.02v2.19h-1.24v-2.19c-.6-.25-1.03-.84-1.03-1.53,0-.91.74-1.65,1.65-1.65s1.65.74,1.65,1.65c0,.69-.43,1.28-1.03,1.53ZM200.73,141.39h-7.95v-2.18c0-2.19,1.78-3.97,3.97-3.97s3.97,1.78,3.97,3.97v2.18Z"/>
        <g>
          <path class="cls-18" d="M182.7,167.07c0,.54.21.86.7.86s.69-.33.69-.86v-4.58h.62v4.54c0,.91-.42,1.51-1.34,1.51s-1.33-.61-1.33-1.51v-4.54h.66v4.58Z"/>
          <path class="cls-18" d="M187.97,163.93v.16h-.63v-.2c0-.54-.21-.86-.68-.86s-.68.32-.68.85c0,1.34,2.01,1.47,2.01,3.16,0,.91-.44,1.5-1.35,1.5s-1.34-.59-1.34-1.5v-.34h.62v.38c0,.54.22.86.7.86s.7-.32.7-.86c0-1.33-2-1.46-2-3.15,0-.92.43-1.5,1.33-1.5s1.33.59,1.33,1.5Z"/>
          <path class="cls-18" d="M190.69,165.14v.6h-1.46v2.13h1.8v.61h-2.46v-5.99h2.46v.61h-1.8v2.04h1.46Z"/>
          <path class="cls-18" d="M192.97,162.49c.94,0,1.33.48,1.33,1.37v.49c0,.66-.23,1.07-.74,1.23.55.16.75.61.75,1.25v.93c0,.27,0,.51.12.72h-.68c-.08-.17-.11-.33-.11-.73v-.94c0-.68-.32-.89-.87-.89h-.47v2.56h-.67v-5.99h1.33ZM192.8,165.31c.53,0,.85-.17.85-.82v-.57c0-.54-.2-.82-.69-.82h-.65v2.22h.5Z"/>
          <path class="cls-18" d="M196.92,168.48h-.6v-5.99h.85l1.39,4.33v-4.33h.59v5.99h-.69l-1.53-4.84v4.84Z"/>
          <path class="cls-18" d="M200.51,167.27l-.23,1.21h-.62l1.15-5.99h.97l1.15,5.99h-.67l-.23-1.21h-1.51ZM200.59,166.7h1.33l-.68-3.46-.66,3.46Z"/>
          <path class="cls-18" d="M205.64,168.47h-.64l-.99-4.76v4.77h-.58v-5.99h.93l.98,4.78.95-4.78h.93v5.99h-.63v-4.82l-.95,4.81Z"/>
          <path class="cls-18" d="M210.04,165.14v.6h-1.46v2.13h1.8v.61h-2.46v-5.99h2.46v.61h-1.8v2.04h1.46Z"/>
        </g>
        <g>
          <path class="cls-18" d="M183.62,183.12l.91,1-.44.33-.68-1.19-.67,1.19-.44-.33.9-1-1.33-.27.16-.52,1.25.55-.15-1.35h.55l-.15,1.35,1.25-.54.16.52-1.33.27Z"/>
          <path class="cls-18" d="M187,183.12l.91,1-.44.33-.68-1.19-.67,1.19-.44-.33.9-1-1.33-.27.16-.52,1.25.55-.15-1.35h.55l-.15,1.35,1.25-.54.16.52-1.33.27Z"/>
          <path class="cls-18" d="M190.37,183.12l.91,1-.44.33-.68-1.19-.67,1.19-.44-.33.9-1-1.33-.27.16-.52,1.25.55-.15-1.35h.55l-.15,1.35,1.25-.54.16.52-1.33.27Z"/>
          <path class="cls-18" d="M193.75,183.12l.91,1-.44.33-.68-1.19-.67,1.19-.44-.33.9-1-1.33-.27.16-.52,1.25.55-.15-1.35h.55l-.15,1.35,1.25-.54.16.52-1.33.27Z"/>
          <path class="cls-18" d="M197.13,183.12l.91,1-.44.33-.68-1.19-.67,1.19-.44-.33.9-1-1.33-.27.16-.52,1.25.55-.15-1.35h.55l-.15,1.35,1.25-.54.16.52-1.33.27Z"/>
          <path class="cls-18" d="M200.51,183.12l.91,1-.44.33-.68-1.19-.67,1.19-.44-.33.9-1-1.33-.27.16-.52,1.25.55-.15-1.35h.55l-.15,1.35,1.25-.54.16.52-1.33.27Z"/>
          <path class="cls-18" d="M203.88,183.12l.91,1-.44.33-.68-1.19-.67,1.19-.44-.33.9-1-1.33-.27.16-.52,1.25.55-.15-1.35h.55l-.15,1.35,1.25-.54.16.52-1.33.27Z"/>
          <path class="cls-18" d="M207.26,183.12l.91,1-.44.33-.68-1.19-.67,1.19-.44-.33.9-1-1.33-.27.16-.52,1.25.55-.15-1.35h.55l-.15,1.35,1.25-.54.16.52-1.33.27Z"/>
        </g>
      </g>
    </g>
  </g>
  <g id="Mug">
    <g>
      <g>
        <ellipse class="cls-12" cx="208.46" cy="395.6" rx="63.97" ry="60.11"/>
        <ellipse class="cls-7" cx="207.12" cy="392.47" rx="63.97" ry="60.11"/>
        <ellipse class="cls-7" cx="207.12" cy="392.47" rx="55.21" ry="51.89"/>
      </g>
      <path class="cls-12" d="M222.41,357.54c-22.16,0-40.13,22.57-40.13,50.42,0,17.96,7.48,33.72,18.74,42.66,1.86.16,3.74.25,5.64.25,23.29,0,43.61-11.93,54.45-29.62.92-4.23,1.42-8.68,1.42-13.28,0-27.85-17.96-50.42-40.13-50.42Z"/>
      <g>
        <rect class="cls-7" x="156.63" y="385.22" width="26.13" height="6.25"/>
        <ellipse class="cls-7" cx="216.33" cy="388.01" rx="39.86" ry="37.45"/>
        <ellipse class="cls-6" cx="216.33" cy="388.01" rx="33.27" ry="31.27"/>
      </g>
      <g>
        <path class="cls-1" d="M202.39,359.33c-.21-.52-.46-1.03-.74-1.53-3.39-5.9-2.97-13.42-.42-20.4"/>
        <path class="cls-4" d="M202.92,371.76s1.78-6.76-.53-12.43"/>
        <path class="cls-1" d="M214.8,357.81c-3.39-5.9-2.97-13.42-.42-20.4"/>
        <path class="cls-4" d="M216.07,371.76s2.12-8.05-1.27-13.96"/>
        <path class="cls-1" d="M228.36,358.6c-.13-.27-.27-.53-.42-.79-3.39-5.9-2.97-13.42-.42-20.4"/>
        <path class="cls-4" d="M229.22,371.76s1.94-7.35-.85-13.16"/>
      </g>
    </g>
  </g>
  <g id="Right_Hand">
    <g>
      <path class="cls-6" d="M355.64,332.24s-1.04.06-2.9.26c-1.77-6-7.06-23.74-10.54-32.91-4.23-11.14-9.99-26.89-13.83-33.42-3.84-6.53-3.46-10.37-10.75-16.52-7.3-6.15-13.83-3.46-13.83-3.46,0,0-1.15-4.61-8.45-6.91-7.3-2.3-17.28,2.3-17.28,2.3,0,0-1.54-2.69-8.83-1.92s-9.99,7.3-9.99,7.3c0,0-14.98-29.96-20.74-32.26-5.76-2.3-11.52,3.46-9.22,8.83,2.3,5.38,19.59,35.34,21.89,42.25,2.3,6.91,7.3,18.44,7.3,18.44,0,0-16.52-11.91-21.51-13.06-4.99-1.15-12.29-1.92-16.52,2.69-4.23,4.61,5.76,5.76,13.83,13.06,8.07,7.3,21.13,24.2,27.27,34.95,6.15,10.76,19.21,12.68,24.97,18.82,4.06,4.33,9.82,10.36,12.88,13.56-1.93,2.01-2.89,3.34-2.89,3.34l12.68,31.11s2.69-4.23,13.44-12.68c10.75-8.45,44.17-18.82,44.17-18.82l-11.14-24.97Z"/>
      <g>
        <g>
          <g>
            <path class="cls-7" d="M301.01,348.4s-9.22-9.6-14.98-15.75c-5.76-6.15-18.82-8.07-24.97-18.82-6.15-10.75-19.21-27.66-27.27-34.95-8.07-7.3-18.05-8.45-13.83-13.06,4.23-4.61,11.52-3.84,16.52-2.69,4.99,1.15,21.51,13.06,21.51,13.06,0,0-4.99-11.52-7.3-18.44-2.3-6.91-19.59-36.87-21.89-42.25-2.3-5.38,3.46-11.14,9.22-8.83,5.76,2.3,20.74,32.26,20.74,32.26,0,0,2.69-6.53,9.99-7.3,7.3-.77,8.83,1.92,8.83,1.92,0,0,9.99-4.61,17.28-2.3s8.45,6.91,8.45,6.91c0,0,6.53-2.69,13.83,3.46,7.3,6.15,6.91,9.99,10.75,16.52s9.6,22.28,13.83,33.42c4.23,11.14,11.14,34.95,11.14,34.95l-49.55,26.89-2.3-4.99Z"/>
            <line class="cls-1" x1="258.76" y1="238.93" x2="272.2" y2="258.91"/>
            <line class="cls-1" x1="277.58" y1="233.56" x2="289.87" y2="252.76"/>
            <line class="cls-1" x1="303.32" y1="238.17" x2="311.77" y2="253.15"/>
            <line class="cls-1" x1="263.92" y1="293.37" x2="265.67" y2="298.47"/>
            <line class="cls-1" x1="257.99" y1="276.19" x2="262.7" y2="289.83"/>
          </g>
          <line class="cls-1" x1="279.5" y1="263.52" x2="282.57" y2="267.74"/>
          <line class="cls-1" x1="293.71" y1="259.29" x2="297.17" y2="263.9"/>
          <line class="cls-1" x1="312.53" y1="256.99" x2="314.84" y2="264.29"/>
        </g>
        <g>
          <path class="cls-7" d="M296.02,349.56s8.83-12.29,26.89-18.44c18.05-6.15,32.26-6.91,32.26-6.91l11.14,24.97s-33.42,10.37-44.17,18.82c-10.75,8.45-13.44,12.68-13.44,12.68l-12.68-31.11Z"/>
          <path class="cls-7" d="M326.36,432.52s-14.6-36.49-18.44-44.17c-3.84-7.68,2.3-11.52,2.3-11.52,0,0,8.83-11.91,31.88-21.13,23.05-9.22,24.97-9.6,30.73-3.07,5.76,6.53,43.55,79.96,43.55,79.96"/>
        </g>
      </g>
    </g>
  </g>
  <g id="Left_Hand">
    <g>
      <path class="cls-6" d="M86.59,394.13s5.22-11.2,17.66-17.54c12.43-6.34,20.51-9.07,32.41-20.81,11.9-11.74,31.51-22.22,39.59-23.66,8.09-1.45,10.77-4.92,7.29-8.89s-12.99-4.19-21.46-1.33-16.29,6.36-16.29,6.36c4.29-8.44,7.14-18.61,11.36-27.08,3-6.01,7.91-15.93,10.83-21.99,1.9-3.95,7.56-10.53,5.04-14.85-2.53-4.34-8.59-1.45-11.66,2.67-4.88,6.56-28.75,42.54-28.75,42.54,4.53-9.6,9.07-19.2,13.6-28.8,6.89-14.59,10.18-21.55,9.2-19.48,2.01-4.26,5.92-9.95,3.54-14.86-2.42-4.98-9.43-5.49-12.34-.75-3.32,5.41-28.69,53.42-28.69,53.42,0,0,15.88-41.21,17.91-45.94,2.48-5.78,1.01-10.82-2.64-10.8-5.31.04-7.83,5.93-9.91,9.93.39-.56.77-1.13,1.16-1.69-4.97,6.62-8.31,15.33-12.47,22.52-4.86,8.4-9.89,16.71-15.08,24.91,1.02-8.49,4.43-16.45,8.65-23.81,2.55-4.44,13.15-15.35,11.34-20.72-1.56-4.62-13.19,4.06-19.96,13.53-3.69,5.16-13.35,19.24-16.01,29.14s-21.28,43.63-26.25,53.02c-4.97,9.4-10.94,25.99-10.94,25.99l42.85,18.97Z"/>
      <path class="cls-6" d="M100.77,385.07s-9.58-11.72-27.97-16.74c-18.4-5.02-32.63-4.91-32.63-4.91l-9.58,25.61s33.99,8.29,45.25,16.06c11.26,7.77,14.2,11.82,14.2,11.82l10.73-31.83Z"/>
      <g>
        <g>
          <path class="cls-7" d="M85.32,389.69s5.22-11.2,17.66-17.54c12.43-6.34,20.51-9.07,32.41-20.81,11.9-11.74,31.51-22.22,39.59-23.66,8.09-1.45,10.77-4.92,7.29-8.89-3.48-3.97-12.99-4.19-21.46-1.33-8.47,2.86-16.29,6.36-16.29,6.36,4.29-8.44,7.14-18.61,11.36-27.08,3-6.01,7.91-15.93,10.83-21.99,1.9-3.95,7.56-10.53,5.04-14.85-2.53-4.34-8.59-1.45-11.66,2.67-4.88,6.56-28.75,42.54-28.75,42.54,4.53-9.6,9.07-19.2,13.6-28.8,6.89-14.59,10.18-21.55,9.2-19.48,2.01-4.26,5.92-9.95,3.54-14.86-2.42-4.98-9.43-5.49-12.34-.75-3.32,5.41-28.69,53.42-28.69,53.42,0,0,15.88-41.21,17.91-45.94,2.48-5.78,1.01-10.82-2.64-10.8-5.31.04-7.83,5.93-9.91,9.93.39-.56.77-1.13,1.16-1.69-4.97,6.62-8.31,15.33-12.47,22.52-4.86,8.4-9.89,16.71-15.08,24.91,1.02-8.49,4.43-16.45,8.65-23.81,2.55-4.44,13.15-15.35,11.34-20.72-1.56-4.62-13.19,4.06-19.96,13.53-3.69,5.16-13.35,19.24-16.01,29.14-2.66,9.9-21.28,43.63-26.25,53.02-4.97,9.4-10.94,25.99-10.94,25.99l42.85,18.97Z"/>
          <line class="cls-1" x1="116.67" y1="294.65" x2="112.08" y2="303.92"/>
          <line class="cls-1" x1="131.35" y1="305.12" x2="127.77" y2="309.76"/>
          <line class="cls-1" x1="144.53" y1="323.82" x2="139.93" y2="330.52"/>
          <line class="cls-1" x1="120.75" y1="319.42" x2="120.38" y2="323.41"/>
          <line class="cls-1" x1="109.29" y1="312.15" x2="109.3" y2="316"/>
          <line class="cls-1" x1="92.43" y1="304.12" x2="93.35" y2="310.67"/>
        </g>
        <g>
          <path class="cls-7" d="M99.5,380.64s-9.58-11.72-27.97-16.74c-18.4-5.02-32.63-4.91-32.63-4.91l-9.58,25.61s33.99,8.29,45.25,16.06c11.26,7.77,14.2,11.82,14.2,11.82l10.73-31.83Z"/>
          <path class="cls-7" d="M84.27,436.01s2.38-8.01,5.74-15.91c3.36-7.9-3.01-11.36-3.01-11.36,0,0-9.55-11.34-33.12-19.12-23.57-7.78-25.51-8.04-30.86-1.17S.46,436.62.46,436.62"/>
        </g>
      </g>
    </g>
  </g>
</svg>