<svg xmlns="http://www.w3.org/2000/svg" width="930.342" height="473.037" viewBox="0 0 930.342 473.037">
  <g id="Group_2" data-name="Group 2" transform="translate(-511.738 -300.199)">
    <g id="Group_1" data-name="Group 1">
      <path id="Path_1" data-name="Path 1" d="M975.9,300.7V772.564" fill="none" stroke="#d5daea" stroke-width="1"/>
      <path id="Path_2" data-name="Path 2" d="M933.848,300.7s-80.747,238.036,0,471.866" fill="none" stroke="#d5daea" stroke-width="1"/>
      <path id="Path_3" data-name="Path 3" d="M897.961,300.7s80.747,238.036,0,471.866" transform="translate(120)" fill="none" stroke="#d5daea" stroke-width="1"/>
      <path id="Path_4" data-name="Path 4" d="M1059.174,304.7s178.617,198.264.3,467.842" fill="none" stroke="#d5daea" stroke-width="1"/>
      <path id="Path_5" data-name="Path 5" d="M1138.426,300.7S961,502.654,1139.315,772.231" transform="translate(-250)" fill="none" stroke="#d5daea" stroke-width="1"/>
      <path id="Path_6" data-name="Path 6" d="M843.849,300.7s-236.4,218.46.793,471.635" fill="none" stroke="#d5daea" stroke-width="1"/>
      <path id="Path_7" data-name="Path 7" d="M738.429,300.7s236.088,218.429-1.107,471.6" transform="translate(371)" fill="none" stroke="#d5daea" stroke-width="1"/>
      <path id="Path_8" data-name="Path 8" d="M809.174,300.7s-322.51,201.32-3.329,471.739" fill="none" stroke="#d5daea" stroke-width="1"/>
      <path id="Path_9" data-name="Path 9" d="M667.316,300.7S988.583,502.287,669.4,772.706" transform="translate(479)" fill="none" stroke="#d5daea" stroke-width="1"/>
      <line id="Line_1" data-name="Line 1" x2="507" transform="translate(723.5 772.5)" fill="none" stroke="#d5daea" stroke-width="1"/>
      <line id="Line_2" data-name="Line 2" x2="507" transform="translate(723.5 300.699)" fill="none" stroke="#d5daea" stroke-width="1"/>
      <path id="Path_10" data-name="Path 10" d="M766.891,300.7s-410.123,216.858.117,471.873" fill="none" stroke="#d5daea" stroke-width="1"/>
      <path id="Path_11" data-name="Path 11" d="M584.562,300.7s409.262,216.858-.979,471.873" transform="translate(599)" fill="none" stroke="#d5daea" stroke-width="1"/>
      <path id="Path_12" data-name="Path 12" d="M723.5,300.7s-475.4,213.819.346,471.873" fill="none" stroke="#d5daea" stroke-width="1"/>
      <path id="Path_13" data-name="Path 13" d="M512.059,300.7s475.742,214.043,0,472.1" transform="translate(718)" fill="none" stroke="#d5daea" stroke-width="1"/>
      <path id="Path_14" data-name="Path 14" d="M680.819,323.021l591.4-.073" fill="none" stroke="#d5daea" stroke-width="1"/>
      <path id="Path_15" data-name="Path 15" d="M622.91,361.387h707.124" fill="none" stroke="#d5daea" stroke-width="1"/>
      <path id="Path_16" data-name="Path 16" d="M574.055,404.807H1379.72" fill="none" stroke="#d5daea" stroke-width="1"/>
      <path id="Path_17" data-name="Path 17" d="M539.836,448.618h874.479" fill="none" stroke="#d5daea" stroke-width="1"/>
      <path id="Path_18" data-name="Path 18" d="M1434.379,491.6H519.154" fill="none" stroke="#d5daea" stroke-width="1"/>
      <path id="Path_19" data-name="Path 19" d="M512.315,536.635H1441.3" fill="none" stroke="#d5daea" stroke-width="1"/>
      <path id="Path_20" data-name="Path 20" d="M1434.116,580.388H519.766" fill="none" stroke="#d5daea" stroke-width="1"/>
      <path id="Path_21" data-name="Path 21" d="M541.309,624.525h871.418" fill="none" stroke="#d5daea" stroke-width="1"/>
      <path id="Path_22" data-name="Path 22" d="M1375.6,669.483H578.229" fill="none" stroke="#d5daea" stroke-width="1"/>
      <path id="Path_23" data-name="Path 23" d="M626.692,711.141h700.494" fill="none" stroke="#d5daea" stroke-width="1"/>
      <path id="Path_24" data-name="Path 24" d="M1273.335,747.849H680.98" fill="none" stroke="#d5daea" stroke-width="1"/>
    </g>
  </g>
</svg>
